<svg width="152" height="28" viewBox="0 0 152 28" fill="none" xmlns="http://www.w3.org/2000/svg">
<path d="M33.1367 18.5562V9.55469C33.1367 9.33496 33.1636 9.19824 33.2173 9.14453C33.2759 9.08594 33.415 9.05664 33.6348 9.05664H36.9746C38.2246 9.05664 39.3208 9.49854 40.2632 10.3823C40.8003 10.8804 41.2129 11.4663 41.501 12.1401C41.7695 12.77 41.9038 13.4072 41.9038 14.0518C41.9038 14.999 41.6353 15.8926 41.0981 16.7324C40.561 17.5674 39.8579 18.1899 38.9888 18.6001C38.3442 18.9028 37.6729 19.0542 36.9746 19.0542H33.6348C33.415 19.0542 33.2759 19.0273 33.2173 18.9736C33.1636 18.915 33.1367 18.7759 33.1367 18.5562ZM35.7368 16.8569H36.3301C36.8184 16.8569 37.231 16.791 37.5679 16.6592C37.9048 16.5273 38.2026 16.3149 38.4614 16.022C38.9448 15.48 39.1865 14.8232 39.1865 14.0518C39.1865 13.2852 38.9448 12.6309 38.4614 12.0889C38.2026 11.7959 37.9048 11.5835 37.5679 11.4517C37.231 11.3198 36.8184 11.2539 36.3301 11.2539H35.7368V16.8569Z" fill="black"/>
<path d="M46.1665 9.55469V18.5562C46.1665 18.7759 46.1372 18.915 46.0786 18.9736C46.0249 19.0273 45.8882 19.0542 45.6685 19.0542H44.0645C43.8447 19.0542 43.7056 19.0273 43.647 18.9736C43.5933 18.915 43.5664 18.7759 43.5664 18.5562V9.55469C43.5664 9.33496 43.5933 9.19824 43.647 9.14453C43.7056 9.08594 43.8447 9.05664 44.0645 9.05664H45.6685C45.8882 9.05664 46.0249 9.08594 46.0786 9.14453C46.1372 9.19824 46.1665 9.33496 46.1665 9.55469Z" fill="black"/>
<path d="M55.2632 15.5239H53.6299C53.4102 15.5239 53.271 15.4971 53.2124 15.4434C53.1587 15.3848 53.1318 15.2456 53.1318 15.0259V14.0005C53.1318 13.7808 53.1587 13.644 53.2124 13.5903C53.271 13.5317 53.4102 13.5024 53.6299 13.5024H57.7754C57.9805 13.5024 58.1074 13.522 58.1562 13.561C58.2441 13.6294 58.2881 13.7661 58.2881 13.9712C58.2881 14.9282 58.1147 15.7974 57.7681 16.5786C57.3579 17.4917 56.7598 18.1899 55.9736 18.6733C55.1777 19.1616 54.2402 19.4058 53.1611 19.4058C52.0674 19.4058 51.0884 19.1567 50.2241 18.6587C49.3843 18.1704 48.7544 17.4673 48.3345 16.5493C47.9878 15.7925 47.8145 14.9795 47.8145 14.1104C47.8145 13.1191 48.0366 12.2036 48.481 11.3638C48.9399 10.4849 49.5942 9.82568 50.4438 9.38623C51.2837 8.95166 52.2163 8.73438 53.2417 8.73438C54.9556 8.73438 56.2666 9.34961 57.1748 10.5801C57.4824 10.9951 57.6362 11.271 57.6362 11.4077C57.6362 11.4858 57.6118 11.5469 57.563 11.5908C57.519 11.6348 57.4214 11.6885 57.27 11.752L55.7393 12.3818C55.5781 12.4502 55.4731 12.4844 55.4243 12.4844C55.3169 12.4844 55.229 12.4233 55.1606 12.3013C54.8774 11.8032 54.582 11.4639 54.2744 11.2832C53.9229 11.083 53.5396 10.9829 53.1245 10.9829C52.3579 10.9829 51.7354 11.2881 51.2568 11.8984C50.7734 12.5088 50.5317 13.2437 50.5317 14.103C50.5317 15.0845 50.8296 15.895 51.4253 16.5347C51.8745 17.0132 52.4678 17.2524 53.2051 17.2524C53.9521 17.2524 54.5161 17.0083 54.897 16.52C55.0776 16.2905 55.1997 15.9585 55.2632 15.5239Z" fill="black"/>
<path d="M62.5435 9.55469V18.5562C62.5435 18.7759 62.5142 18.915 62.4556 18.9736C62.4019 19.0273 62.2651 19.0542 62.0454 19.0542H60.4414C60.2217 19.0542 60.0825 19.0273 60.0239 18.9736C59.9702 18.915 59.9434 18.7759 59.9434 18.5562V9.55469C59.9434 9.33496 59.9702 9.19824 60.0239 9.14453C60.0825 9.08594 60.2217 9.05664 60.4414 9.05664H62.0454C62.2651 9.05664 62.4019 9.08594 62.4556 9.14453C62.5142 9.19824 62.5435 9.33496 62.5435 9.55469Z" fill="black"/>
<path d="M68.4175 11.2539V18.5562C68.4175 18.7759 68.3882 18.915 68.3296 18.9736C68.2759 19.0273 68.1392 19.0542 67.9194 19.0542H66.3154C66.0957 19.0542 65.9565 19.0273 65.8979 18.9736C65.8442 18.915 65.8174 18.7759 65.8174 18.5562V11.2539H64.1987C63.979 11.2539 63.8398 11.2271 63.7812 11.1733C63.7275 11.1147 63.7007 10.9756 63.7007 10.7559V9.55469C63.7007 9.33496 63.7275 9.19824 63.7812 9.14453C63.8398 9.08594 63.979 9.05664 64.1987 9.05664H70.0728C70.2925 9.05664 70.4292 9.08594 70.4829 9.14453C70.5415 9.19824 70.5708 9.33496 70.5708 9.55469V10.7559C70.5708 10.9756 70.5415 11.1147 70.4829 11.1733C70.4292 11.2271 70.2925 11.2539 70.0728 11.2539H68.4175Z" fill="black"/>
<path d="M77.1992 17.311H73.6104L73.0757 18.6807C73.0024 18.8613 72.9414 18.9688 72.8926 19.0029C72.8438 19.0371 72.7192 19.0542 72.519 19.0542H70.8125C70.627 19.0542 70.4976 19.0347 70.4243 18.9956C70.3511 18.9517 70.3145 18.8784 70.3145 18.7759C70.3145 18.7222 70.3438 18.6172 70.4023 18.4609L73.874 9.4375C73.8887 9.39844 73.9033 9.35693 73.918 9.31299C73.9619 9.1958 74.0107 9.125 74.0645 9.10059C74.1182 9.07129 74.2378 9.05664 74.4233 9.05664H76.4448C76.645 9.05664 76.7695 9.07373 76.8184 9.10791C76.8672 9.14209 76.9258 9.25195 76.9941 9.4375L80.3999 18.4609C80.4585 18.6123 80.4878 18.7173 80.4878 18.7759C80.4878 18.8784 80.4512 18.9517 80.3779 18.9956C80.3047 19.0347 80.1753 19.0542 79.9897 19.0542H78.2539C78.0537 19.0542 77.9292 19.0371 77.8804 19.0029C77.8315 18.9688 77.7729 18.8589 77.7046 18.6733L77.1992 17.311ZM76.4961 15.3335L75.4194 12.1475L74.3281 15.3335H76.4961Z" fill="black"/>
<path d="M84.3696 16.8569H86.9917C87.2114 16.8569 87.3481 16.8862 87.4019 16.9448C87.4604 16.9985 87.4897 17.1353 87.4897 17.355V18.5562C87.4897 18.7759 87.4604 18.915 87.4019 18.9736C87.3481 19.0273 87.2114 19.0542 86.9917 19.0542H82.2676C82.0479 19.0542 81.9087 19.0273 81.8501 18.9736C81.7964 18.915 81.7695 18.7759 81.7695 18.5562V9.55469C81.7695 9.33496 81.7964 9.19824 81.8501 9.14453C81.9087 9.08594 82.0479 9.05664 82.2676 9.05664H83.8716C84.0913 9.05664 84.228 9.08594 84.2817 9.14453C84.3403 9.19824 84.3696 9.33496 84.3696 9.55469V16.8569Z" fill="black"/>
<path d="M99.9629 15.1724V9.55469C99.9629 9.33496 99.9897 9.19824 100.043 9.14453C100.102 9.08594 100.241 9.05664 100.461 9.05664H102.065C102.285 9.05664 102.421 9.08594 102.475 9.14453C102.534 9.19824 102.563 9.33496 102.563 9.55469V18.5562C102.563 18.7759 102.534 18.915 102.475 18.9736C102.421 19.0273 102.285 19.0542 102.065 19.0542H100.307C100.126 19.0542 100.017 19.0444 99.9775 19.0249C99.9385 19.0054 99.8628 18.9248 99.7505 18.7832L95.1802 12.9312V18.5562C95.1802 18.7759 95.1509 18.915 95.0923 18.9736C95.0386 19.0273 94.9019 19.0542 94.6821 19.0542H93.0781C92.8584 19.0542 92.7192 19.0273 92.6606 18.9736C92.6069 18.915 92.5801 18.7759 92.5801 18.5562V9.55469C92.5801 9.33496 92.6069 9.19824 92.6606 9.14453C92.7192 9.08594 92.8584 9.05664 93.0781 9.05664H94.8359C95.0166 9.05664 95.1265 9.06641 95.1655 9.08594C95.2046 9.10547 95.2803 9.18604 95.3926 9.32764L99.9629 15.1724Z" fill="black"/>
<path d="M110.686 17.311H107.097L106.562 18.6807C106.489 18.8613 106.428 18.9688 106.379 19.0029C106.33 19.0371 106.206 19.0542 106.005 19.0542H104.299C104.113 19.0542 103.984 19.0347 103.911 18.9956C103.837 18.9517 103.801 18.8784 103.801 18.7759C103.801 18.7222 103.83 18.6172 103.889 18.4609L107.36 9.4375C107.375 9.39844 107.39 9.35693 107.404 9.31299C107.448 9.1958 107.497 9.125 107.551 9.10059C107.604 9.07129 107.724 9.05664 107.91 9.05664H109.931C110.131 9.05664 110.256 9.07373 110.305 9.10791C110.354 9.14209 110.412 9.25195 110.48 9.4375L113.886 18.4609C113.945 18.6123 113.974 18.7173 113.974 18.7759C113.974 18.8784 113.938 18.9517 113.864 18.9956C113.791 19.0347 113.662 19.0542 113.476 19.0542H111.74C111.54 19.0542 111.416 19.0371 111.367 19.0029C111.318 18.9688 111.259 18.8589 111.191 18.6733L110.686 17.311ZM109.982 15.3335L108.906 12.1475L107.814 15.3335H109.982Z" fill="black"/>
<path d="M118.427 11.2539V18.5562C118.427 18.7759 118.398 18.915 118.339 18.9736C118.286 19.0273 118.149 19.0542 117.929 19.0542H116.325C116.105 19.0542 115.966 19.0273 115.908 18.9736C115.854 18.915 115.827 18.7759 115.827 18.5562V11.2539H114.208C113.989 11.2539 113.85 11.2271 113.791 11.1733C113.737 11.1147 113.71 10.9756 113.71 10.7559V9.55469C113.71 9.33496 113.737 9.19824 113.791 9.14453C113.85 9.08594 113.989 9.05664 114.208 9.05664H120.083C120.302 9.05664 120.439 9.08594 120.493 9.14453C120.551 9.19824 120.581 9.33496 120.581 9.55469V10.7559C120.581 10.9756 120.551 11.1147 120.493 11.1733C120.439 11.2271 120.302 11.2539 120.083 11.2539H118.427Z" fill="black"/>
<path d="M124.331 9.55469V18.5562C124.331 18.7759 124.301 18.915 124.243 18.9736C124.189 19.0273 124.052 19.0542 123.833 19.0542H122.229C122.009 19.0542 121.87 19.0273 121.811 18.9736C121.757 18.915 121.73 18.7759 121.73 18.5562V9.55469C121.73 9.33496 121.757 9.19824 121.811 9.14453C121.87 9.08594 122.009 9.05664 122.229 9.05664H123.833C124.052 9.05664 124.189 9.08594 124.243 9.14453C124.301 9.19824 124.331 9.33496 124.331 9.55469Z" fill="black"/>
<path d="M130.629 15.1357L132.9 9.43018C132.919 9.38623 132.937 9.34473 132.951 9.30566C132.995 9.19336 133.044 9.125 133.098 9.10059C133.151 9.07129 133.271 9.05664 133.457 9.05664H135.214C135.385 9.05664 135.5 9.06885 135.559 9.09326C135.661 9.13721 135.712 9.21777 135.712 9.33496C135.712 9.39844 135.681 9.50586 135.617 9.65723L131.765 18.688C131.687 18.8687 131.623 18.9761 131.574 19.0103C131.53 19.0396 131.408 19.0542 131.208 19.0542H129.992C129.797 19.0542 129.675 19.0396 129.626 19.0103C129.577 18.9761 129.514 18.8687 129.436 18.688L125.642 9.65723C125.573 9.50098 125.539 9.39355 125.539 9.33496C125.539 9.23242 125.576 9.16162 125.649 9.12256C125.722 9.07861 125.852 9.05664 126.037 9.05664H127.81C128.01 9.05664 128.134 9.07373 128.183 9.10791C128.232 9.13721 128.293 9.24463 128.366 9.43018L130.629 15.1357Z" fill="black"/>
<path d="M139.521 11.2539V12.9238H141.945C142.165 12.9238 142.302 12.9531 142.355 13.0117C142.414 13.0654 142.443 13.2021 142.443 13.4219V14.623C142.443 14.8428 142.414 14.9819 142.355 15.0405C142.302 15.0942 142.165 15.1211 141.945 15.1211H139.521V16.8569H142.114C142.333 16.8569 142.47 16.8862 142.524 16.9448C142.583 16.9985 142.612 17.1353 142.612 17.355V18.5562C142.612 18.7759 142.583 18.915 142.524 18.9736C142.47 19.0273 142.333 19.0542 142.114 19.0542H137.419C137.199 19.0542 137.06 19.0273 137.001 18.9736C136.948 18.915 136.921 18.7759 136.921 18.5562V9.55469C136.921 9.33496 136.948 9.19824 137.001 9.14453C137.06 9.08594 137.199 9.05664 137.419 9.05664H142.114C142.333 9.05664 142.47 9.08594 142.524 9.14453C142.583 9.19824 142.612 9.33496 142.612 9.55469V10.7559C142.612 10.9756 142.583 11.1147 142.524 11.1733C142.47 11.2271 142.333 11.2539 142.114 11.2539H139.521Z" fill="black"/>
<path d="M150.559 10.0747L149.995 11.1733C149.921 11.3198 149.863 11.415 149.819 11.459C149.775 11.498 149.714 11.5176 149.636 11.5176C149.592 11.5176 149.326 11.3833 148.837 11.1147C148.662 11.022 148.4 10.9756 148.054 10.9756C147.688 10.9756 147.402 11.0757 147.197 11.2759C147.026 11.4468 146.94 11.6372 146.94 11.8472C146.94 12.0425 147.019 12.2061 147.175 12.3379C147.321 12.46 147.473 12.5527 147.629 12.6162C147.785 12.6797 148.154 12.7969 148.735 12.9678C149.56 13.2119 150.168 13.5439 150.559 13.9639C150.979 14.418 151.188 15.021 151.188 15.7729C151.188 16.9204 150.847 17.7896 150.163 18.3804C149.431 19.0054 148.469 19.3179 147.277 19.3179C146.75 19.3179 146.181 19.2275 145.571 19.0469C144.965 18.8613 144.462 18.6294 144.062 18.3511C143.955 18.2778 143.901 18.1875 143.901 18.0801C143.901 18.0361 143.945 17.9312 144.033 17.7651L144.663 16.5859C144.741 16.4395 144.799 16.3467 144.838 16.3076C144.882 16.2686 144.943 16.249 145.021 16.249C145.07 16.249 145.122 16.2661 145.175 16.3003C145.229 16.3345 145.4 16.4517 145.688 16.6519C146.123 16.9546 146.638 17.106 147.233 17.106C147.683 17.106 148.012 16.9863 148.222 16.7471C148.388 16.5566 148.471 16.354 148.471 16.1392C148.471 15.8608 148.364 15.6436 148.149 15.4873C147.934 15.3262 147.521 15.1553 146.911 14.9746C145.954 14.6963 145.319 14.4277 145.007 14.1689C144.479 13.7344 144.216 13.0752 144.216 12.1914C144.216 11.1465 144.56 10.3091 145.249 9.6792C145.874 9.10303 146.647 8.81494 147.57 8.81494C148.054 8.81494 148.581 8.88086 149.152 9.0127C149.729 9.14453 150.188 9.30322 150.529 9.48877C150.637 9.55225 150.69 9.6377 150.69 9.74512C150.69 9.79883 150.646 9.90869 150.559 10.0747Z" fill="black"/>
<path fill-rule="evenodd" clip-rule="evenodd" d="M6.73047 27.0801V0L0.679688 4.13281V22.9473L6.73047 27.0801ZM3.67969 5.22461C3.72656 5.17773 3.86719 5.17773 3.91406 5.22461L6.25781 7.45801V9.31055L4.94531 7.98047V21.2832C4.94531 21.3779 4.85156 21.4727 4.75781 21.4727H3.82031C3.72656 21.4727 3.63281 21.3779 3.63281 21.2832V5.32031C3.63281 5.32031 3.63281 5.27246 3.67969 5.22461Z" fill="black" fill-opacity="0.8"/>
<path fill-rule="evenodd" clip-rule="evenodd" d="M6.73047 4.03906V0L22.2266 4.13281V22.9473L6.73047 27.0801V23.2793C6.73047 23.375 6.82422 23.4697 6.91797 23.4697H8.79297C11.5586 23.3271 14.0938 21.8545 15.5469 19.4316L14.6094 18.4814C13.3438 20.8096 10.9023 22.2344 8.23047 22.1875H7.99609V5.17871H8.23047C12.125 5.17871 15.2656 8.0293 15.2656 11.498V15.6787L16.4844 16.9141C16.5312 16.5811 16.5781 16.2012 16.5781 15.8682V11.498C16.5547 7.45898 13.1328 4.08594 8.79297 3.84863H6.91797C6.82422 3.84863 6.73047 3.94336 6.73047 4.03906ZM19.1367 5.7002H18.1992C18.1055 5.7002 18.0117 5.79492 18.0117 5.89062V19.2402L8.5625 9.83301V11.6387L18.9727 21.9961C19.0195 22.0908 19.1602 22.0908 19.207 21.9961C19.2539 21.9482 19.2539 21.9004 19.2539 21.8535V5.89062C19.2773 5.79492 19.2305 5.7002 19.1367 5.7002Z" fill="black"/>
</svg>
